<svg version="1.2" xmlns="http://www.w3.org/2000/svg" viewBox="0 0 904 905" width="904" height="905">
	<title>da7ed7b0-5f66-4f97-a610-51100d3b9fd2-ai</title>
	<style>
		.s0 { fill: #ced5d8 } 
		.s1 { fill: #a6afb2 } 
	</style>
	<g id="background">
	</g>
	<g id="objects">
		<g id="&lt;Group&gt;">
		</g>
		<g id="&lt;Group&gt;">
			<path id="&lt;Path&gt;" class="s0" d="m904 453c0 143.2-66.6 270.9-170.6 353.7-77.2 61.5-175 98.3-281.4 98.3-106.4 0-204.2-36.8-281.4-98.3-104-82.8-170.6-210.5-170.6-353.7 0-249.6 202.4-452 452-452 249.6 0 452 202.4 452 452z"/>
			<path id="&lt;Path&gt;" class="s1" d="m627.7 368.1c0 113.9-78.6 151.9-175.7 151.9-97.1 0-175.7-38-175.7-151.9 0-113.8 78.6-206.1 175.7-206.1 97.1 0 175.7 92.3 175.7 206.1z"/>
			<path id="&lt;Path&gt;" class="s1" d="m733.4 806.7c-77.2 61.5-175 98.3-281.4 98.3-106.4 0-204.2-36.8-281.4-98.3 0-147.7 148.7-208.7 281.4-208.7 132.7 0 281.4 77 281.4 208.7z"/>
		</g>
	</g>
</svg>